<svg xmlns="http://www.w3.org/2000/svg" width="408.994" height="57.188" viewBox="0 0 408.994 57.188">
  <g id="Group_236" data-name="Group 236" transform="translate(15482 -992)">
    <path id="StorageConnect" d="M18.441,8.984A4.032,4.032,0,0,0,16.7,5.972,6.7,6.7,0,0,0,12.74,4.893,7.545,7.545,0,0,0,9.8,5.41a4.351,4.351,0,0,0-1.876,1.4A3.412,3.412,0,0,0,7.26,8.837a3.059,3.059,0,0,0,.428,1.639,3.916,3.916,0,0,0,1.2,1.182,8.436,8.436,0,0,0,1.669.8A17.947,17.947,0,0,0,12.4,13l2.836.709a19.531,19.531,0,0,1,3.294,1.078A11.6,11.6,0,0,1,21.38,16.5,7.6,7.6,0,0,1,23.388,19a7.51,7.51,0,0,1,.738,3.427,8.2,8.2,0,0,1-1.359,4.682,8.98,8.98,0,0,1-3.929,3.146,15.345,15.345,0,0,1-6.188,1.123,15.741,15.741,0,0,1-6.129-1.093,9.129,9.129,0,0,1-4.047-3.19,9.453,9.453,0,0,1-1.566-5.11H6.3a4.582,4.582,0,0,0,.975,2.629A5.159,5.159,0,0,0,9.5,26.176a8.835,8.835,0,0,0,3.1.517,8.481,8.481,0,0,0,3.131-.532,5.077,5.077,0,0,0,2.127-1.507,3.638,3.638,0,0,0,.783-2.274,2.891,2.891,0,0,0-.694-1.95,5.086,5.086,0,0,0-1.905-1.3,18.36,18.36,0,0,0-2.836-.945L9.771,17.3a13.854,13.854,0,0,1-5.908-2.91A6.713,6.713,0,0,1,1.707,9.176,7.8,7.8,0,0,1,3.154,4.495,9.564,9.564,0,0,1,7.127,1.378,13.791,13.791,0,0,1,12.813.256a13.294,13.294,0,0,1,5.642,1.122,9.2,9.2,0,0,1,3.825,3.087,7.879,7.879,0,0,1,1.433,4.519ZM40.52,8.231v4.135H27.478V8.231ZM30.7,2.8h5.347v21.3a3.416,3.416,0,0,0,.325,1.654,1.754,1.754,0,0,0,.886.768,3.4,3.4,0,0,0,1.211.207,5.222,5.222,0,0,0,.916-.074q.428-.074.65-.133l.9,4.18a11.95,11.95,0,0,1-1.226.325,10.028,10.028,0,0,1-1.92.207,8.719,8.719,0,0,1-3.618-.605,5.628,5.628,0,0,1-2.555-2.1A6.249,6.249,0,0,1,30.7,24.98ZM55.059,31.36A10.984,10.984,0,0,1,49.3,29.9a9.93,9.93,0,0,1-3.781-4.091,13.45,13.45,0,0,1-1.329-6.144A13.543,13.543,0,0,1,45.518,13.5,9.91,9.91,0,0,1,49.3,9.4a10.985,10.985,0,0,1,5.76-1.462A10.985,10.985,0,0,1,60.819,9.4,9.813,9.813,0,0,1,64.586,13.5a13.419,13.419,0,0,1,1.344,6.159,13.327,13.327,0,0,1-1.344,6.144A9.832,9.832,0,0,1,60.819,29.9,10.984,10.984,0,0,1,55.059,31.36Zm.03-4.283a4.606,4.606,0,0,0,3.013-.989A5.967,5.967,0,0,0,59.9,23.4a11.019,11.019,0,0,0,.606-3.751,11.066,11.066,0,0,0-.606-3.766,5.961,5.961,0,0,0-1.8-2.7,4.562,4.562,0,0,0-3.013-1,4.688,4.688,0,0,0-3.072,1,6.065,6.065,0,0,0-1.817,2.7,11.327,11.327,0,0,0-.591,3.766A11.278,11.278,0,0,0,50.2,23.4a6.072,6.072,0,0,0,1.817,2.688A4.734,4.734,0,0,0,55.089,27.077Zm15.795,3.84V8.231h5.184v3.781H76.3a5.656,5.656,0,0,1,2.127-3.028A5.853,5.853,0,0,1,81.9,7.906q.443,0,.99.044a6.658,6.658,0,0,1,.93.1v4.918a5.622,5.622,0,0,0-1.078-.207,9.919,9.919,0,0,0-1.4-.1,5.409,5.409,0,0,0-2.629.635,4.646,4.646,0,0,0-1.816,1.728,4.869,4.869,0,0,0-.665,2.555V30.917Zm23.028.458a9.466,9.466,0,0,1-3.884-.768,6.341,6.341,0,0,1-2.718-2.3,6.739,6.739,0,0,1-.989-3.752,6.4,6.4,0,0,1,.709-3.175,5.486,5.486,0,0,1,1.935-2.009,9.76,9.76,0,0,1,2.762-1.137,22.459,22.459,0,0,1,3.205-.576q1.994-.207,3.235-.369a4.8,4.8,0,0,0,1.8-.532,1.256,1.256,0,0,0,.576-1.137v-.089a3.347,3.347,0,0,0-.989-2.585,4.049,4.049,0,0,0-2.851-.916,5.11,5.11,0,0,0-3.116.857,4.251,4.251,0,0,0-1.536,2.023L87.058,14.2a7.971,7.971,0,0,1,1.95-3.456,8.479,8.479,0,0,1,3.323-2.1,12.711,12.711,0,0,1,4.342-.709,14.145,14.145,0,0,1,3.264.384,9.184,9.184,0,0,1,2.969,1.27,6.379,6.379,0,0,1,2.156,2.378,7.75,7.75,0,0,1,.827,3.766V30.917h-5.14V27.8h-.177A6.525,6.525,0,0,1,99.2,29.573,6.606,6.606,0,0,1,97,30.888,8.873,8.873,0,0,1,93.911,31.375ZM95.3,27.447a5.814,5.814,0,0,0,2.792-.635A4.7,4.7,0,0,0,99.908,25.1a4.363,4.363,0,0,0,.65-2.319V20.106a2.514,2.514,0,0,1-.857.384,12.133,12.133,0,0,1-1.329.31q-.738.133-1.462.236l-1.255.177a9.334,9.334,0,0,0-2.142.532,3.558,3.558,0,0,0-1.492,1.034,2.528,2.528,0,0,0-.547,1.684,2.545,2.545,0,0,0,1.078,2.23A4.69,4.69,0,0,0,95.3,27.447ZM121.548,39.9a13.991,13.991,0,0,1-4.948-.783,8.788,8.788,0,0,1-3.323-2.068,7.157,7.157,0,0,1-1.743-2.88L116.349,33a5.292,5.292,0,0,0,.945,1.314,4.639,4.639,0,0,0,1.669,1.093,6.99,6.99,0,0,0,2.673.443,6.146,6.146,0,0,0,3.766-1.108,4.169,4.169,0,0,0,1.492-3.6v-4.3h-.266a7.59,7.59,0,0,1-1.211,1.7A6.194,6.194,0,0,1,123.335,30a7.751,7.751,0,0,1-3.235.591,9.321,9.321,0,0,1-4.741-1.226,8.792,8.792,0,0,1-3.368-3.692,13.677,13.677,0,0,1-1.241-6.174,14.431,14.431,0,0,1,1.241-6.307,9.212,9.212,0,0,1,3.382-3.914,8.692,8.692,0,0,1,4.741-1.344,6.983,6.983,0,0,1,3.279.679,6.319,6.319,0,0,1,2.068,1.61,8.872,8.872,0,0,1,1.167,1.758h.3V8.231H132.2V31.287a7.964,7.964,0,0,1-1.388,4.815,8.333,8.333,0,0,1-3.8,2.85A14.857,14.857,0,0,1,121.548,39.9Zm.044-13.5a4.966,4.966,0,0,0,2.895-.827,5.1,5.1,0,0,0,1.816-2.378,10.014,10.014,0,0,0,.62-3.722,10.4,10.4,0,0,0-.62-3.751,5.355,5.355,0,0,0-1.8-2.5,4.658,4.658,0,0,0-2.91-.9,4.712,4.712,0,0,0-2.983.93,5.638,5.638,0,0,0-1.8,2.555,10.354,10.354,0,0,0-.606,3.663,10.081,10.081,0,0,0,.606,3.648,5.379,5.379,0,0,0,1.817,2.422A5.01,5.01,0,0,0,121.592,26.4Zm26.543,4.963a11.682,11.682,0,0,1-5.893-1.418,9.6,9.6,0,0,1-3.8-4.047,13.554,13.554,0,0,1-1.329-6.188,13.508,13.508,0,0,1,1.329-6.144A10.052,10.052,0,0,1,142.2,9.428a10.52,10.52,0,0,1,5.657-1.492,11.452,11.452,0,0,1,3.958.679,8.947,8.947,0,0,1,3.308,2.068,9.7,9.7,0,0,1,2.275,3.574,14.354,14.354,0,0,1,.827,5.14v1.639H139.628v-3.6H153.1a5.751,5.751,0,0,0-.665-2.732,4.832,4.832,0,0,0-1.817-1.905,5.107,5.107,0,0,0-2.688-.694,5.208,5.208,0,0,0-2.88.8,5.493,5.493,0,0,0-1.935,2.068,5.95,5.95,0,0,0-.694,2.791V20.9a7.394,7.394,0,0,0,.724,3.4,5.163,5.163,0,0,0,2.023,2.156,6.052,6.052,0,0,0,3.042.738,6.474,6.474,0,0,0,2.112-.325,4.684,4.684,0,0,0,1.639-.99,4.122,4.122,0,0,0,1.049-1.61l4.992.561a7.786,7.786,0,0,1-1.8,3.456,8.786,8.786,0,0,1-3.367,2.274A12.9,12.9,0,0,1,148.135,31.36Zm41.154-20.485h-5.524a6.872,6.872,0,0,0-.871-2.407,6.475,6.475,0,0,0-1.58-1.8,6.587,6.587,0,0,0-2.156-1.108,8.412,8.412,0,0,0-2.585-.384A7.831,7.831,0,0,0,172.2,6.415a8.138,8.138,0,0,0-2.984,3.6,13.866,13.866,0,0,0-1.078,5.775,14.134,14.134,0,0,0,1.078,5.849,8.181,8.181,0,0,0,2.984,3.574,8.019,8.019,0,0,0,4.357,1.2,8.8,8.8,0,0,0,2.54-.354,6.954,6.954,0,0,0,2.142-1.078,6.331,6.331,0,0,0,1.61-1.743,6.579,6.579,0,0,0,.916-2.363l5.524.03a12.105,12.105,0,0,1-4.017,7.385,12.327,12.327,0,0,1-3.87,2.245,14.436,14.436,0,0,1-4.918.8,13.751,13.751,0,0,1-7.119-1.846,12.884,12.884,0,0,1-4.933-5.332,18,18,0,0,1-1.8-8.36,17.824,17.824,0,0,1,1.817-8.36A12.979,12.979,0,0,1,169.395,2.1,13.693,13.693,0,0,1,176.484.256a15.047,15.047,0,0,1,4.7.709,12.029,12.029,0,0,1,3.87,2.083,11.085,11.085,0,0,1,2.792,3.338A12.422,12.422,0,0,1,189.289,10.875ZM204.383,31.36a10.983,10.983,0,0,1-5.76-1.462,9.928,9.928,0,0,1-3.781-4.091,13.45,13.45,0,0,1-1.329-6.144,13.543,13.543,0,0,1,1.329-6.159A9.908,9.908,0,0,1,198.622,9.4a12.078,12.078,0,0,1,11.521,0,9.813,9.813,0,0,1,3.766,4.106,13.414,13.414,0,0,1,1.343,6.159,13.322,13.322,0,0,1-1.343,6.144,9.832,9.832,0,0,1-3.766,4.091A10.99,10.99,0,0,1,204.383,31.36Zm.03-4.283a4.608,4.608,0,0,0,3.013-.989,5.962,5.962,0,0,0,1.8-2.688,11.029,11.029,0,0,0,.607-3.751,11.076,11.076,0,0,0-.607-3.766,5.956,5.956,0,0,0-1.8-2.7,4.563,4.563,0,0,0-3.013-1,4.688,4.688,0,0,0-3.072,1,6.062,6.062,0,0,0-1.817,2.7,11.321,11.321,0,0,0-.591,3.766,11.273,11.273,0,0,0,.591,3.751,6.069,6.069,0,0,0,1.817,2.688A4.734,4.734,0,0,0,204.412,27.077Zm21.141-9.453V30.917h-5.347V8.231h5.112v3.855h.264a6.478,6.478,0,0,1,2.5-3.028,7.674,7.674,0,0,1,4.267-1.123,8.057,8.057,0,0,1,4.093,1,6.757,6.757,0,0,1,2.716,2.91,9.912,9.912,0,0,1,.961,4.623V30.917h-5.347V17.3a5.058,5.058,0,0,0-1.181-3.559,4.15,4.15,0,0,0-3.236-1.285,4.973,4.973,0,0,0-2.5.62,4.312,4.312,0,0,0-1.7,1.758A5.938,5.938,0,0,0,225.553,17.625Zm25.762,0V30.917h-5.347V8.231h5.109v3.855h.266a6.486,6.486,0,0,1,2.5-3.028,7.676,7.676,0,0,1,4.269-1.123,8.049,8.049,0,0,1,4.091,1,6.762,6.762,0,0,1,2.718,2.91,9.964,9.964,0,0,1,.961,4.623V30.917h-5.347V17.3a5.059,5.059,0,0,0-1.183-3.559,4.146,4.146,0,0,0-3.234-1.285,4.962,4.962,0,0,0-2.5.62,4.3,4.3,0,0,0-1.7,1.758A5.938,5.938,0,0,0,251.314,17.625ZM281.772,31.36a11.679,11.679,0,0,1-5.893-1.418,9.594,9.594,0,0,1-3.8-4.047,13.557,13.557,0,0,1-1.331-6.188,13.511,13.511,0,0,1,1.331-6.144,10.051,10.051,0,0,1,3.752-4.135,10.513,10.513,0,0,1,5.656-1.492,11.445,11.445,0,0,1,3.957.679,8.931,8.931,0,0,1,3.309,2.068,9.692,9.692,0,0,1,2.275,3.574,14.358,14.358,0,0,1,.828,5.14v1.639h-18.6v-3.6h13.469a5.765,5.765,0,0,0-.663-2.732,4.845,4.845,0,0,0-1.818-1.905,5.105,5.105,0,0,0-2.689-.694,5.213,5.213,0,0,0-2.88.8,5.513,5.513,0,0,0-1.934,2.068,5.953,5.953,0,0,0-.695,2.791V20.9a7.394,7.394,0,0,0,.724,3.4,5.172,5.172,0,0,0,2.023,2.156,6.059,6.059,0,0,0,3.042.738,6.477,6.477,0,0,0,2.113-.325,4.672,4.672,0,0,0,1.639-.99,4.122,4.122,0,0,0,1.05-1.61l4.991.561a7.773,7.773,0,0,1-1.8,3.456,8.8,8.8,0,0,1-3.369,2.274A12.9,12.9,0,0,1,281.772,31.36Zm24.921,0a10.955,10.955,0,0,1-5.833-1.492,9.949,9.949,0,0,1-3.737-4.121,13.613,13.613,0,0,1-1.3-6.085,13.407,13.407,0,0,1,1.329-6.1A9.926,9.926,0,0,1,300.9,9.428a10.817,10.817,0,0,1,5.76-1.492,11.189,11.189,0,0,1,4.889,1.019,8.273,8.273,0,0,1,4.858,7.134H311.3a4.88,4.88,0,0,0-1.477-2.732,4.264,4.264,0,0,0-3.086-1.108,4.822,4.822,0,0,0-2.88.886,5.68,5.68,0,0,0-1.936,2.511,10.233,10.233,0,0,0-.68,3.929,10.551,10.551,0,0,0,.68,3.988,5.822,5.822,0,0,0,1.9,2.555,5.235,5.235,0,0,0,5.022.443,4.255,4.255,0,0,0,1.58-1.314,5.043,5.043,0,0,0,.871-2.082h5.109a8.9,8.9,0,0,1-1.416,4.268,8.4,8.4,0,0,1-3.338,2.895A11.179,11.179,0,0,1,306.693,31.36ZM332.546,8.231v4.135H319.505V8.231ZM322.724,2.8h5.347v21.3a3.421,3.421,0,0,0,.324,1.654,1.756,1.756,0,0,0,.886.768,3.412,3.412,0,0,0,1.212.207,5.2,5.2,0,0,0,.915-.074c.287-.049.5-.093.651-.133l.9,4.18a11.894,11.894,0,0,1-1.227.325,10,10,0,0,1-1.919.207,8.717,8.717,0,0,1-3.618-.605,5.631,5.631,0,0,1-2.556-2.1,6.248,6.248,0,0,1-.915-3.545Z" transform="translate(-15405.966 1006.301)" fill="#212121"/>
    <path id="Vector" d="M0,3.574A3.574,3.574,0,0,1,3.574,0H58.812a3.574,3.574,0,1,1,0,7.148H3.574A3.574,3.574,0,0,1,0,3.574Zm10.492,6.434a6.239,6.239,0,0,0-6.239,6.239v34.7a6.239,6.239,0,0,0,6.239,6.239h41.4a6.239,6.239,0,0,0,6.239-6.239v-34.7a6.239,6.239,0,0,0-6.239-6.239ZM41.118,20.731a2.145,2.145,0,0,1-2.144,2.145H21.995a2.145,2.145,0,0,1,0-4.289H38.974A2.145,2.145,0,0,1,41.118,20.731Z" transform="translate(-15482 992)" fill="#1849c6"/>
  </g>
</svg>
